<svg id="Layer_1" data-name="Layer 1" xmlns="http://www.w3.org/2000/svg" viewBox="0 0 388.19 400.65"><defs><style>.cls-1{fill:#fefefe;}</style></defs><title>mine_2</title><path d="M290.92,219.08c0-5,.12-10-.05-15-.08-2.59.76-3.5,3.4-3.46,8.33.13,16.66.17,25,0,3.14-.08,4,1,3.9,4-.19,9.83,0,29.73-.19,39.55-.07,3.14,1,4.42,4.08,4.86,26.22,3.73,50.15,13.07,71.14,29.43,2.1,1.63,3.27,1.2,5-.55,7-7.15,14.19-14.09,21.16-21.25,2.13-2.21,3.53-2.73,5.91-.2,5.47,5.83,11.15,11.47,17,17,2.46,2.34,2.65,3.85.07,6.32-7.11,6.79-13.84,14-20.93,20.77-2.2,2.11-2.16,3.47-.39,5.79A148.57,148.57,0,0,1,455,376.53c.51,3.61,2,4.56,5.54,4.47,9.49-.24,19,.05,28.49-.11,3.22-.06,4.37.86,4.28,4.21q-.33,11.75,0,23.5c.1,3.41-.85,4.63-4.43,4.54-9.66-.23-19.33.05-29-.16-3.18-.07-4.42,1-4.87,4.08-3.82,26.18-13.06,50.16-29.51,71.09-1.93,2.46-.84,3.68.86,5.36,7,6.91,13.82,14,20.87,20.83,2.25,2.18,2.57,3.65.15,6q-8.87,8.44-17.31,17.32c-2.08,2.17-3.37,2.31-5.55.06-6.95-7.17-14.23-14-21.18-21.23-2.11-2.18-3.45-2.15-5.76-.36A141.67,141.67,0,0,1,327.45,545c-3.31.4-4.51,1.65-4.44,5.06.21,9.66,0,37.22.15,46.89.06,3.24-.92,4.33-4.22,4.25q-12-.3-24,0c-3.45.1-4.15-1.27-4.1-4.37.17-9.66-.07-37.23.16-46.89.08-3.47-1.27-4.63-4.5-5A141.23,141.23,0,0,1,216.28,516c-2.38-1.85-3.72-1.63-5.77.49-6.83,7.06-14,13.84-20.84,20.86-2.12,2.16-3.55,2.73-5.93.19-5.58-6-11.37-11.73-17.26-17.38-2.25-2.17-2-3.56.07-5.64,7-6.87,13.79-14,20.87-20.84,2.23-2.16,2.59-3.59.57-6.14-16.08-20.37-24.93-43.83-28.85-69.26-.64-4.1-1.88-5.58-6.24-5.4-9.48.39-34.42.05-43.91.19-2.73,0-3.85-.65-3.79-3.6q.27-12.5,0-25c0-3,1.1-3.64,3.8-3.61,9.67.13,34.76-.09,44.42.17,3.5.09,5-.82,5.55-4.46,3.6-25.72,12.87-49.18,28.69-69.88,2-2.66,2-4.19-.44-6.56-7.1-6.8-13.81-14-20.87-20.84-2.22-2.16-2.15-3.42.05-5.52q9-8.62,17.64-17.7c2-2.12,3.21-2,5.15,0,7,7.14,14.23,14.05,21.21,21.21,1.92,2,3.17,2.7,5.71.75,21-16.09,44.74-25.4,70.78-29.09,3.12-.45,4.24-1.71,4.1-4.86-.22-5-.06-20-.06-25Z" transform="translate(-105.2 -200.59)"/><path class="cls-1" d="M221.86,355.69c.2-16.9,14-30.49,30.68-30.13,17,.37,30.53,14.08,30.37,30.68-.16,17.27-13.89,30.35-31.67,30.17C234.64,386.24,221.66,372.67,221.86,355.69Z" transform="translate(-105.2 -200.59)"/></svg>