<?xml version="1.0" encoding="utf-8"?>
<!-- Generator: Adobe Illustrator 23.0.3, SVG Export Plug-In . SVG Version: 6.00 Build 0)  -->
<svg version="1.1" id="レイヤー_1" xmlns="http://www.w3.org/2000/svg" xmlns:xlink="http://www.w3.org/1999/xlink" x="0px"
	 y="0px" viewBox="0 0 76 76" style="enable-background:new 0 0 76 76;" xml:space="preserve">
<style type="text/css">
	.st0{fill:#FDFCFD;}
	.st1{fill:#757575;}
	.st2{fill:#CDCFD0;}
</style>
<path id="rect1313_65_" class="st0" d="M0,0h76c0,0,0,0,0,0v76c0,0,0,0,0,0H0c0,0,0,0,0,0L0,0C0,0,0,0,0,0z"/>
<path id="path1341_65_" class="st1" d="M76,0C76,0,76,0,76,0l0,76c0,0,0,0,0,0H0c0,0,0,0,0,0L76,0z"/>
<polygon id="rect1311_65_" class="st2" points="8.5,8.5 67.5,8.5 67.5,8.5 67.5,67.5 67.5,67.5 8.5,67.5 8.5,67.5 8.5,8.5 "/>
</svg>
