<?xml version="1.0" encoding="utf-8"?>
<!-- Generator: Adobe Illustrator 23.0.3, SVG Export Plug-In . SVG Version: 6.00 Build 0)  -->
<svg version="1.1" id="Layer_1" xmlns="http://www.w3.org/2000/svg" xmlns:xlink="http://www.w3.org/1999/xlink" x="0px" y="0px"
	 viewBox="0 0 122.9 122.9" style="enable-background:new 0 0 122.9 122.9;" xml:space="preserve">
<style type="text/css">
	.st0{fill:#FFFFFF;}
</style>
<path class="st0" d="M49.1,1.3c2.2-0.4,4.3-0.8,6.5-1C57.7,0.1,59.8,0,61.9,0c1.1,0,2.2,0.8,2.3,1.9c0.1,1-0.5,2-1.4,2.3
	c-9.2,3.6-16.5,10.3-21,18.6c-4.4,8.2-6.1,17.9-4.1,27.7l0,0.1c2.3,11.1,8.8,20.2,17.6,25.9c8.7,5.8,19.7,8.2,30.7,5.9l0.1,0
	c8-1.7,14.9-5.5,20.3-10.8c5.6-5.5,9.6-12.5,11.3-20.2c0.3-1.2,1.4-1.9,2.6-1.6c0.9,0.2,1.5,0.9,1.7,1.8
	c2.6,16.2-1.3,32.1-10.1,44.7c-8.7,12.6-22,22-38.2,25.3c-16.6,3.4-33-0.2-46.2-8.9c-13.1-8.7-23-22.3-26.4-38.9
	c-3.3-16.2,0.1-32.3,8.3-45.3c8.3-13,21.3-22.9,37.4-26.8c0.3-0.1,0.7-0.2,1.1-0.3h0l0,0L49.1,1.3L49.1,1.3z"/>
</svg>
